<?xml version="1.0" encoding="UTF-8" standalone="no" ?>
<!DOCTYPE svg PUBLIC "-//W3C//DTD SVG 1.1//EN" "http://www.w3.org/Graphics/SVG/1.1/DTD/svg11.dtd">
<svg xmlns="http://www.w3.org/2000/svg" xmlns:xlink="http://www.w3.org/1999/xlink" version="1.1" width="1280" height="1024" viewBox="0 0 1280 1024" xml:space="preserve">
<desc>Created with Fabric.js 3.1.0</desc>
<defs>
</defs>
<g transform="matrix(1.9692780337941629 0 0 1.9692780337941629 640.0153846153846 512.012312418764)" id="background-logo"  >
<rect style="stroke: none; stroke-width: 1; stroke-dasharray: none; stroke-linecap: butt; stroke-dashoffset: 0; stroke-linejoin: miter; stroke-miterlimit: 4; fill: rgb(0,0,0); fill-rule: nonzero; opacity: 1;"  paint-order="stroke"  x="-325" y="-260" rx="0" ry="0" width="650" height="520" />
</g>
<g transform="matrix(1.9692780337941629 0 0 1.9692780337941629 640.0155963127733 385.31730854011613)" style="" id="logo-logo"  >
	<g transform="matrix(0.317 0 0 -0.317 -0.01810750000004191 -0.018237499999969486)"  >
<path style="stroke: none; stroke-width: 1; stroke-dasharray: none; stroke-linecap: butt; stroke-dashoffset: 0; stroke-linejoin: miter; stroke-miterlimit: 10; fill: rgb(239,244,244); fill-rule: evenodd; opacity: 1;"  paint-order="stroke"  transform=" translate(-3614.775, -6695.19)" d="m 3614.77 7104.7 c 226.17 0 409.52 -183.34 409.52 -409.51 c 0 -226.17 -183.35 -409.51 -409.52 -409.51 c -226.17 0 -409.51 183.34 -409.51 409.51 c 0 226.17 183.34 409.51 409.51 409.51" stroke-linecap="round" />
</g>
	<g transform="matrix(0.317 0 0 -0.317 26.203892499999938 25.639762499999932)"  >
<path style="stroke: none; stroke-width: 1; stroke-dasharray: none; stroke-linecap: butt; stroke-dashoffset: 0; stroke-linejoin: miter; stroke-miterlimit: 10; fill: rgb(187,193,196); fill-rule: evenodd; opacity: 1;"  paint-order="stroke"  transform=" translate(-3697.38, -6614.365000000001)" d="m 4024.18 6703.09 c 0.05 -2.63 0.11 -5.26 0.11 -7.9 c 0 -226.17 -183.35 -409.51 -409.52 -409.51 c -61.09 0 -119.04 13.39 -171.11 37.37 l -73.19 124.27 l 301.4 495.73 l 352.31 -239.96" stroke-linecap="round" />
</g>
	<g transform="matrix(0.317 0 0 -0.317 -29.73310749999996 -0.017237500000220507)"  >
<linearGradient id="SVGID_126817" gradientUnits="userSpaceOnUse" gradientTransform="matrix(10 0 0 10 0 0)"  x1="343.61099000000183" y1="649.79401" x2="357.52600000000183" y2="687.79999">
<stop offset="0%" style="stop-color:rgb(210,64,32);stop-opacity: 1"/>
<stop offset="100%" style="stop-color:rgb(142,46,28);stop-opacity: 1"/>
</linearGradient>
<path style="stroke: none; stroke-width: 1; stroke-dasharray: none; stroke-linecap: butt; stroke-dashoffset: 0; stroke-linejoin: miter; stroke-miterlimit: 10; fill: url(#SVGID_126817); fill-rule: nonzero; opacity: 1;"  paint-order="stroke"  transform=" translate(-3521.17, -6695.1849999999995)" d="m 3370.47 6447.32 h 114.21 l 187.19 495.73 h -114.2 l -187.2 -495.73" stroke-linecap="round" />
</g>
	<g transform="matrix(0.317 0 0 -0.317 26.645892499999945 -0.017237500000220507)"  >
<path style="stroke: none; stroke-width: 1; stroke-dasharray: none; stroke-linecap: butt; stroke-dashoffset: 0; stroke-linejoin: miter; stroke-miterlimit: 10; fill: rgb(229,108,25); fill-rule: evenodd; opacity: 1;"  paint-order="stroke"  transform=" translate(-3698.7750000000005, -6695.1849999999995)" d="m 3859.07 6447.32 h -114.21 l -32.37 85.72 h -174.01 l 34.3 92.43 h 104.81 l -119.92 317.58 h 114.2 l 187.2 -495.73" stroke-linecap="round" />
</g>
</g>
<g transform="matrix(1.9692780337941629 0 0 1.9692780337941629 640.0379813115732 748.6429896389559)" id="text-logo-path"  >
<path style="stroke: none; stroke-width: 1; stroke-dasharray: none; stroke-linecap: butt; stroke-dashoffset: 0; stroke-linejoin: miter; stroke-miterlimit: 4; fill: rgb(239,244,244); fill-rule: nonzero; opacity: 1;"  paint-order="stroke"  transform=" translate(-298.17999999999995, 15.975000000000001)" d="M 9.87 0 L 1.7 0 L 15.38 -31.97 L 23.96 -31.97 L 37.68 0 L 29.47 0 L 27.4 -4.98 L 11.98 -4.98 L 9.87 0 Z M 19.74 -23.22 L 14.66 -11.29 L 24.72 -11.29 L 19.74 -23.22 Z M 69.79 0 L 54.05 0 L 54.05 -31.97 L 67.91 -31.97 Q 71.28 -31.97 73.69 -31.33 Q 76.1 -30.68 77.47 -29.48 Q 78.83 -28.27 79.45 -26.72 Q 80.07 -25.18 80.07 -23.18 L 80.07 -23.18 Q 80.07 -22.03 79.71 -20.93 Q 79.36 -19.83 78.82 -19.06 Q 78.28 -18.29 77.84 -17.8 Q 77.41 -17.3 77.06 -17.05 L 77.06 -17.05 Q 79.38 -15.88 80.62 -13.88 Q 81.86 -11.89 81.86 -9.32 L 81.86 -9.32 Q 81.86 -7.3 81.18 -5.66 Q 80.51 -4.02 79.12 -2.72 Q 77.73 -1.42 75.35 -0.71 Q 72.98 0 69.79 0 L 69.79 0 Z M 61.76 -12.83 L 61.76 -6.63 L 68.89 -6.63 Q 73.55 -6.63 73.55 -9.73 L 73.55 -9.73 Q 73.55 -11.43 72.42 -12.13 Q 71.28 -12.83 68.89 -12.83 L 68.89 -12.83 L 61.76 -12.83 Z M 61.76 -25.38 L 61.76 -18.7 L 68.37 -18.7 Q 70.82 -18.7 71.79 -19.5 Q 72.75 -20.29 72.75 -22.19 L 72.75 -22.19 Q 72.75 -25.38 68.37 -25.38 L 68.37 -25.38 L 61.76 -25.38 Z M 111.74 0 L 87.25 0 L 87.25 -31.97 L 111.74 -31.97 L 111.74 -24.81 L 94.96 -24.81 L 94.96 -19.32 L 108.96 -19.32 L 108.96 -12.65 L 94.96 -12.65 L 94.96 -7.14 L 111.74 -7.14 L 111.74 0 Z M 127.41 -24.81 L 116.1 -24.81 L 116.1 -31.97 L 146.55 -31.97 L 146.55 -24.81 L 135.22 -24.81 L 135.22 0 L 127.41 0 L 127.41 -24.81 Z M 161.24 -24.81 L 149.93 -24.81 L 149.93 -31.97 L 180.38 -31.97 L 180.38 -24.81 L 169.04 -24.81 L 169.04 0 L 161.24 0 L 161.24 -24.81 Z M 210.12 0 L 185.64 0 L 185.64 -31.97 L 210.12 -31.97 L 210.12 -24.81 L 193.35 -24.81 L 193.35 -19.32 L 207.35 -19.32 L 207.35 -12.65 L 193.35 -12.65 L 193.35 -7.14 L 210.12 -7.14 L 210.12 0 Z M 224.08 0 L 216.37 0 L 216.37 -31.97 L 231.81 -31.97 Q 236.7 -31.97 239.95 -28.56 Q 243.19 -25.15 243.19 -19.97 L 243.19 -19.97 Q 243.19 -16.55 241.66 -13.79 Q 240.12 -11.04 237.5 -9.64 L 237.5 -9.64 L 244.09 0 L 234.5 0 L 229.7 -7.94 L 224.08 -7.94 L 224.08 0 Z M 224.08 -24.81 L 224.08 -15.08 L 230.69 -15.08 Q 232.66 -15.08 234.05 -16.51 Q 235.44 -17.95 235.44 -19.97 L 235.44 -19.97 Q 235.44 -21.94 234.06 -23.37 Q 232.68 -24.81 230.73 -24.81 L 230.73 -24.81 L 224.08 -24.81 Z M 259.23 -11.18 L 259.23 -11.18 L 266.9 -11.18 Q 266.92 -10.97 267 -10.63 Q 267.08 -10.28 267.53 -9.41 Q 267.98 -8.54 268.66 -7.87 Q 269.33 -7.21 270.71 -6.66 Q 272.09 -6.1 273.85 -6.1 L 273.85 -6.1 Q 276.24 -6.1 277.4 -6.94 Q 278.56 -7.78 278.56 -8.93 L 278.56 -8.93 Q 278.56 -9.52 278.22 -10.01 Q 277.89 -10.49 277.44 -10.81 Q 277 -11.13 276.15 -11.44 Q 275.3 -11.75 274.66 -11.92 Q 274.01 -12.09 272.91 -12.37 L 272.91 -12.37 Q 268.35 -13.45 266.19 -14.34 L 266.19 -14.34 Q 259.72 -17.03 259.72 -22.38 L 259.72 -22.38 Q 259.72 -25.24 261.45 -27.57 Q 263.18 -29.9 266.15 -31.21 Q 269.13 -32.52 272.73 -32.52 L 272.73 -32.52 Q 275.71 -32.52 278.2 -31.56 Q 280.69 -30.59 282.24 -29.04 Q 283.79 -27.49 284.63 -25.62 Q 285.47 -23.75 285.47 -21.85 L 285.47 -21.85 L 277.8 -21.85 Q 277.8 -23.2 276.37 -24.41 Q 274.93 -25.61 272.64 -25.61 L 272.64 -25.61 Q 270.73 -25.61 269.13 -24.82 Q 267.52 -24.03 267.52 -22.74 L 267.52 -22.74 Q 267.52 -21.66 268.91 -21.03 Q 270.3 -20.4 274.13 -19.42 L 274.13 -19.42 Q 278.49 -18.29 280.42 -17.42 L 280.42 -17.42 Q 285.65 -15.05 286.2 -10.53 L 286.2 -10.53 Q 286.27 -9.96 286.27 -9.36 L 286.27 -9.36 Q 286.27 -4.84 282.7 -2.13 Q 279.13 0.57 273.44 0.57 L 273.44 0.57 Q 270.55 0.57 268.13 -0.17 Q 265.71 -0.92 264.1 -2.12 Q 262.49 -3.33 261.37 -4.89 Q 260.24 -6.45 259.74 -8.04 Q 259.23 -9.64 259.23 -11.18 Z M 316.38 0 L 291.89 0 L 291.89 -31.97 L 316.38 -31.97 L 316.38 -24.81 L 299.6 -24.81 L 299.6 -19.32 L 313.6 -19.32 L 313.6 -12.65 L 299.6 -12.65 L 299.6 -7.14 L 316.38 -7.14 L 316.38 0 Z M 332.05 -24.81 L 320.74 -24.81 L 320.74 -31.97 L 351.19 -31.97 L 351.19 -24.81 L 339.85 -24.81 L 339.85 0 L 332.05 0 L 332.05 -24.81 Z M 365.88 -24.81 L 354.57 -24.81 L 354.57 -31.97 L 385.02 -31.97 L 385.02 -24.81 L 373.68 -24.81 L 373.68 0 L 365.88 0 L 365.88 -24.81 Z M 414.76 0 L 390.27 0 L 390.27 -31.97 L 397.99 -31.97 L 397.99 -7.14 L 414.76 -7.14 L 414.76 0 Z M 444.73 0 L 420.25 0 L 420.25 -31.97 L 444.73 -31.97 L 444.73 -24.81 L 427.96 -24.81 L 427.96 -19.32 L 441.96 -19.32 L 441.96 -12.65 L 427.96 -12.65 L 427.96 -7.14 L 444.73 -7.14 L 444.73 0 Z M 458.69 0 L 450.98 0 L 450.98 -31.97 L 459.51 -31.97 L 470.67 -8.51 L 481.75 -31.97 L 490.36 -31.97 L 490.36 0 L 482.6 0 L 482.6 -16.32 L 474.93 0 L 466.33 0 L 458.69 -16.32 L 458.69 0 Z M 521.93 0 L 497.45 0 L 497.45 -31.97 L 521.93 -31.97 L 521.93 -24.81 L 505.16 -24.81 L 505.16 -19.32 L 519.16 -19.32 L 519.16 -12.65 L 505.16 -12.65 L 505.16 -7.14 L 521.93 -7.14 L 521.93 0 Z M 535.45 0 L 527.69 0 L 527.69 -31.97 L 535.45 -31.97 L 551.63 -12.46 L 551.63 -31.97 L 559.39 -31.97 L 559.39 0 L 551.63 0 L 535.45 -19.55 L 535.45 0 Z M 575.52 -24.81 L 564.21 -24.81 L 564.21 -31.97 L 594.66 -31.97 L 594.66 -24.81 L 583.32 -24.81 L 583.32 0 L 575.52 0 L 575.52 -24.81 Z" stroke-linecap="round" />
</g>
</svg>